<svg xmlns="http://www.w3.org/2000/svg" xmlns:xlink="http://www.w3.org/1999/xlink" version="1.1" width="40pt" height="40pt" viewBox="0 0 100 100">
<defs>
<clipPath id="clip_0">
<path d="M5.08908 1.83893H94.4952V98.1653H5.08908Z"/>
</clipPath>
</defs>
<g clip-path="url(#clip_0)">
<path transform="matrix(1,0,0,1,9.2245,93.5395)" d="M0 0C-.0088-.01-.0177-.0204-.0265-.0307-.0069-.0096 .0135 .0111 .0342 .0311 .0227 .0207 .0115 .0103 0 0Z"/>
<path transform="matrix(1,0,0,1,26.5273,97.9076)" d="M0 0C-2.1028 .0077-4.2432-.3763-6.106-1.3839-6.6302-1.693-7.2422-1.9595-7.7161-2.3604-9.2744-1.8639-10.9521-1.8566-12.5772-1.8789-13.427-1.8716-14.2699-2.1124-15.1108-2.2291-15.2268-2.2295-15.3428-2.2368-15.4591-2.2506-15.9614-2.2602-16.5063-2.2518-16.9663-2.4476-17.7409-2.6508-18.8955-3.3097-19.2216-3.9425-19.4378-4.1457-19.6159-4.3903-19.7469-4.6579-19.9462-4.9682-20.0848-5.3027-20.1117-5.616-20.1773-5.8806-20.1313-6.1924-20.16-6.4581-20.1754-7.364-19.9734-8.2652-19.601-9.0901-19.3851-10.0424-18.3806-11.1602-18.0842-11.8956-16.9851-13.8559-15.8638-15.8032-14.7115-17.7324-10.0382-26.0806-4.0485-33.5348 1.6193-41.2079 4.858-45.5802 8.7752-49.5051 11.4298-54.2793 11.7282-54.8765 11.9709-55.4475 12.1694-56.0319 12.1479-56.5196 12.1279-57.0457 12.1655-57.4784 11.9455-58.4458 12.0185-59.7091 11.8511-60.431 11.5642-63.5257 11.0669-66.5939 10.4882-69.6463 9.3908-75.5234 7.0779-81.1756 6.4812-87.1364 6.1552-90.0187 5.9263-92.9168 5.8871-95.8187 6.0488-95.6509 6.2108-95.483 6.3733-95.3156 6.366-95.3233 6.3587-95.331 6.3514-95.3387 6.5802-95.1025 6.8087-94.8663 7.0376-94.6302 7.0952-92.1868 7.3068-89.7472 7.5875-87.3203 7.8809-84.4588 8.5982-81.687 9.4023-78.9372 9.5401-78.6688 9.6826-78.4027 9.8581-78.1508 10.5585-77.1885 11.4628-76.3736 12.414-75.6647 13.97-74.7616 15.6861-74.0742 17.4302-73.6326 19.1916-73.3385 20.988-73.2667 22.7713-73.2206 25.6705-73.1518 28.5413-73.7701 31.3353-74.4901 34.2683-75.295 37.1863-76.1924 39.9142-77.5564 40.9803-78.1304 41.845-78.9668 43.0277-79.2847 43.4758-83.4239 43.904-87.5646 44.1325-91.7225 44.1751-92.57 44.222-93.4179 44.2715-94.2654 44.6939-94.6456 45.1156-95.0272 45.5387-95.4074 45.5126-95.0196 45.4911-94.6317 45.4635-94.2443 45.3648-92.3089 45.2853-90.372 45.1797-88.4366 45.1797-88.4347 45.1793-88.4332 45.1793-88.4313 44.6958-80.8587 44.0983-73.3519 42.8918-65.8639 42.6906-64.3667 42.4978-62.8679 42.454-61.3565 42.4525-60.9997 42.451-60.6434 42.4514-60.287 42.7639-59.1174 43.2527-57.9957 43.8987-56.9846 44.1049-56.6839 44.3153-56.386 44.5284-56.0887 46.2318-54.4802 48.2029-53.1074 49.6045-51.2112 52.2822-47.8392 52.1309-42.6168 50.3038-38.8778 49.4774-37.3245 48.1257-36.0788 46.8305-34.9322 44.4796-32.7319 41.7398-31.053 39.1105-29.219 38.7246-28.9433 38.3387-28.6676 37.9558-28.3873 37.2354-27.453 36.5354-26.5034 35.8857-25.5157 33.2798-21.6154 30.042-18.1997 27.2299-14.4561 24.4836-11.1141 20.9507-8.516 17.4575-6.0085 15.2648-4.643 13.01-3.3604 10.6426-2.3174 9.582-1.7495 8.4718-1.2764 7.3141-.9446 5.0711-.3314 2.7314 .0035 .4032 .0035 .2684 .0035 .1344 .0023 0 0ZM-2.266-3.4287C-1.5368-3.4068-.8075-3.3846-.0787-3.418 .1436-3.436 .3656-3.4541 .5879-3.4702 2.2023-3.6691 3.8001-4.0612 5.3334-4.5761 15.6788-7.6677 22.908-16.0551 29.6326-24.5258 27.7241-25.3341 25.6071-26.6823 24.1295-26.8797 20.4304-27.9864 16.5969-28.3585 12.75-28.4353 7.945-28.7805 3.0989-28.5562-1.5836-27.3616-3.8988-26.852-5.9735-25.8982-7.9673-24.6744-8.4542-23.9421-8.9334-23.2044-9.4042-22.4614-9.4518-22.4045-9.4987-22.3473-9.5447-22.289-9.855-21.8938-10.168-21.5018-10.4625-21.0947-10.6253-20.8697-10.7954-20.6489-10.9483-20.4173-11.1111-20.1712-11.2727-19.9239-11.4352-19.6774-11.4171-19.7042-11.3994-19.7311-11.3818-19.758-11.6959-19.2815-11.9897-18.7903-12.27-18.293-12.4804-17.9198-12.6897-17.5458-12.8821-17.1625-13.0948-16.8945-13.3014-16.6211-13.5092-16.3492-13.7472-16.0343-13.9703-15.7076-14.1996-15.385-14.3647-15.1523-14.5179-14.9115-14.6708-14.6708-14.8785-14.3843-15.0778-14.0909-15.2786-13.8006-15.4257-13.5879-15.5609-13.3675-15.7014-13.1501-15.8385-12.9385-15.9794-12.73-16.1165-12.5184-16.2517-12.3095-16.3692-12.0953-16.4806-11.8729-16.6042-11.626-16.7163-11.3726-16.845-11.1287-16.8853-11.0519-16.9271-10.9759-16.9686-10.8999-17.0224-10.8031-17.0761-10.7067-17.1284-10.6092-17.146-10.5769-17.1633-10.5447-17.1802-10.512-17.2935-10.2954-17.3972-10.0743-17.4993-9.8523-17.5162-9.8158-17.5331-9.7793-17.5504-9.7433-17.6038-9.6319-17.6594-9.5213-17.7155-9.4111-17.7554-9.3339-17.7954-9.2567-17.8345-9.1792-17.8461-9.1573-17.8576-9.135-17.8687-9.1127V-9.1124C-17.8737-9.1031-17.8783-9.0939-17.8829-9.0847-17.8872-9.077-17.891-9.0693-17.8948-9.0612-17.9002-9.0513-17.9056-9.0409-17.9106-9.0305-17.9198-9.0125-17.929-8.9941-17.9382-8.9756-17.9428-8.9668-17.9474-8.9576-17.9517-8.9484-17.9574-8.9372-17.9628-8.9261-17.9682-8.915-17.9766-8.8988-17.9843-8.8823-17.9924-8.8662-17.9947-8.8616-17.9966-8.8574-17.9989-8.8528-18.0112-8.8274-18.0235-8.8024-18.035-8.7771-18.0361-8.7748-18.0377-8.7725-18.0385-8.7702-18.0446-8.7575-18.0504-8.7452-18.0561-8.7326-18.0634-8.7176-18.0703-8.7022-18.0772-8.6869-18.0868-8.6661-18.0964-8.6458-18.1057-8.625-18.1195-8.5947-18.1329-8.564-18.146-8.5332V-8.5329C-18.1563-8.5091-18.1663-8.4849-18.1763-8.4607-18.1786-8.4553-18.1809-8.4499-18.1828-8.4449-18.1851-8.44-18.1871-8.4353-18.1886-8.4307-18.1901-8.4273-18.1913-8.4242-18.1924-8.4207-18.194-8.4173-18.1951-8.4139-18.1967-8.4104-18.2009-8.4004-18.2051-8.3896-18.2086-8.3797-18.2116-8.3724-18.2147-8.3647-18.2174-8.3574-18.2216-8.3474-18.2255-8.3374-18.2289-8.3274-18.2305-8.3244-18.2316-8.3213-18.2324-8.3182-18.2331-8.3167-18.2339-8.3155-18.2339-8.314-18.2431-8.2894-18.2523-8.2648-18.2612-8.2399-18.2619-8.2388-18.2623-8.2372-18.2627-8.2361-18.2635-8.2334-18.2646-8.2307-18.2654-8.2276-18.2662-8.2261-18.2665-8.2245-18.2673-8.223V-8.2226C-18.2688-8.2188-18.2704-8.2149-18.2711-8.2111-18.2781-8.1923-18.2846-8.1738-18.2907-8.1546-18.2938-8.1466-18.2965-8.1389-18.2988-8.1308-18.3007-8.1266-18.3023-8.122-18.3034-8.1178V-8.1174C-18.3069-8.1086-18.3096-8.0997-18.3122-8.0905-18.3142-8.0859-18.3157-8.0809-18.3169-8.0759-18.3207-8.0648-18.3241-8.0536-18.3276-8.0421-18.3307-8.0333-18.3334-8.0245-18.3361-8.0153-18.3368-8.0137-18.3372-8.0129-18.3376-8.0114V-8.011C-18.3387-8.0079-18.3395-8.0049-18.3403-8.0018-18.3418-7.998-18.343-7.9937-18.3441-7.9895-18.3449-7.988-18.3449-7.9864-18.3453-7.9849-18.3468-7.9811-18.3479-7.9772-18.3487-7.9734-18.351-7.9665-18.353-7.9592-18.3553-7.9523-18.3568-7.948-18.3579-7.9438-18.3591-7.9396-18.3625-7.9277-18.366-7.9162-18.3691-7.9046-18.3783-7.8728-18.3871-7.8405-18.3956-7.8087-18.4824-7.4811-18.5384-7.1447-18.5615-6.8095-18.5864-6.4458-18.5872-6.053-18.4463-5.7101-18.3487-5.472-18.2174-5.2704-18.045-5.0803-18.0231-5.0558-18.0004-5.0319-17.9778-5.0081-17.9551-4.9839-17.9325-4.9601-17.9102-4.9359-17.9025-4.9259-17.8945-4.916-17.8868-4.906-17.871-4.886-17.8553-4.866-17.8392-4.8465-17.8073-4.8069-17.7742-4.7681-17.7393-4.7313-17.7305-4.7224-17.7216-4.7136-17.7124-4.7048-17.6978-4.6902-17.6829-4.676-17.6679-4.6614-17.6617-4.6556-17.6556-4.6495-17.6491-4.6437-17.5884-4.5861-17.5258-4.5308-17.4617-4.4774-17.3795-4.4099-17.2977-4.3469-17.2121-4.2854-17.2113-4.2847-17.2102-4.2839-17.2094-4.2831-17.1902-4.2693-17.171-4.2559-17.1514-4.2424-17.1687-4.254-17.186-4.2659-17.2032-4.2777-17.2036-4.2781-17.204-4.2785-17.2044-4.2785-17.2163-4.287-17.2282-4.2954-17.2401-4.3031-17.2194-4.2885-17.1994-4.2732-17.1798-4.257-17.1864-4.2624-17.1929-4.2686-17.1994-4.2747-17.1633-4.244-17.1261-4.2152-17.0877-4.1883-17.0723-4.1775-17.0569-4.1672-17.0412-4.1572-17.0324-4.151-17.0235-4.1453-17.0143-4.1399-16.9825-4.1203-16.9502-4.1015-16.9172-4.0842-16.8999-4.075-16.8822-4.0662-16.8642-4.0577-16.8427-4.0474-16.8212-4.0374-16.7993-4.0282-16.7858-4.0228-16.7724-4.017-16.759-4.012-16.7528-4.0094-16.7467-4.0067-16.7405-4.0047-16.734-4.002-16.7271-3.9994-16.7206-3.9974-16.7094-3.9928-16.6979-3.989-16.6868-3.9852-16.671-3.9794-16.6549-3.9744-16.6388-3.9694-16.6295-3.9663-16.62-3.9633-16.6104-3.9606-16.5927-3.9556-16.5746-3.9506-16.5566-3.946-16.5405-3.9418-16.524-3.9379-16.5078-3.9341-16.375-3.9037-16.2375-3.8888-16.0985-3.8888-16.085-3.8888-16.0712-3.8888-16.0578-3.8891-14.3298-3.5355-12.475-3.827-10.9367-4.1184-9.7571-4.3419-8.7629-4.5654-8.1546-4.4974-8.1343-4.4989-8.1143-4.4997-8.0947-4.5001-8.011-4.517-7.9258-4.5262-7.839-4.5235-7.8509-4.5243-7.8628-4.5251-7.8628-4.5258-7.8225-4.5255-7.7864-4.5178-7.7557-4.5047-7.4577-4.4651-7.0595-4.2582-6.816-4.1733-5.8372-3.8204-4.8353-3.5873-3.8223-3.456-3.7609-3.4564-3.6995-3.4568-3.6384-3.4568-3.1807-3.4568-2.7233-3.4426-2.266-3.4287ZM21.395-34.1189C21.7406-34.0194 22.0862-33.9196 22.4322-33.8197 22.9115-33.6819 23.3796-33.5068 23.8503-33.3417 24.0608-33.256 24.2708-33.1696 24.4812-33.0836 24.679-33.0022 24.8818-32.9285 25.0764-32.8398 25.4462-32.6712 25.8168-32.5049 26.1858-32.3344 26.5099-32.1662 26.8337-31.998 27.1577-31.8299 27.2841-31.7646 27.4046-31.6862 27.5271-31.614 27.6692-31.5303 27.8113-31.447 27.953-31.3633 28.2068-31.1986 28.4595-31.0338 28.7103-30.8645 28.8258-30.7865 28.9414-30.7086 29.0566-30.6302 29.3101-30.4586 29.5524-30.2781 29.8611-30.2205 29.941-30.2059 30.022-30.1986 30.1026-30.1986 30.4271-30.1986 30.7485-30.3165 30.9951-30.5315 31.358-30.8487 31.5258-31.3499 31.4275-31.8214 31.3676-32.1087 31.2119-32.3725 30.9924-32.5646 30.9831-32.5789 30.9735-32.593 30.9636-32.6071 30.861-32.7518 30.7608-32.8981 30.659-33.0433 30.5557-33.19 30.4406-33.3286 30.3365-33.4749 30.2374-33.6151 30.1422-33.7575 30.0504-33.9027 29.7889-34.3389 29.5481-34.787 29.3039-35.2329 29.2094-35.4057 29.1092-35.575 29.0102-35.7451 28.8884-35.9552 28.7724-36.1706 28.6419-36.3753 28.342-36.8441 28.0432-37.3115 27.726-37.7688 27.5652-38.0007 27.4096-38.2377 27.2376-38.4612 27.0372-38.7219 26.8367-38.9826 26.6362-39.243 26.3556-39.6078 26.0606-39.9634 25.7665-40.317 25.3836-40.7771 25.0019-41.2375 24.6172-41.6956 24.6471-41.6599 24.6771-41.6242 24.707-41.5885 24.4114-41.9414 24.116-42.295 23.8196-42.6472 23.1253-43.4716 22.4311-44.2945 21.6899-45.0779 21.4611-45.3198 21.2322-45.5617 21.0033-45.8036 20.8321-45.9849 20.6478-46.1535 20.468-46.3263 20.2764-46.511 20.0894-46.703 19.8916-46.8808 19.6647-47.0847 19.4378-47.2882 19.2108-47.4921 18.8022-47.8592 18.3798-48.2094 17.959-48.5631 17.5853-48.8772 17.1902-49.1667 16.8077-49.4709 15.9533-50.1509 15.1066-50.841 14.2568-51.5264 14.1942-51.5786 14.1328-51.6317 14.074-51.6877 14.0241-51.8632 13.8621-51.9991 13.6643-51.9945 13.3821-51.9884 13.2139-51.7211 13.2726-51.4608 13.3241-51.233 13.5191-51.0437 13.6824-50.8898 13.786-50.7918 13.8897-50.6943 13.993-50.5964 14.1858-50.4147 14.3778-50.2331 14.5702-50.0511 14.9173-49.7228 15.2583-49.3875 15.6039-49.0577 16.029-48.6522 16.4548-48.2471 16.8807-47.8419 17.2417-47.4986 17.5846-47.1365 17.9325-46.7798 18.2139-46.476 18.4943-46.1715 18.775-45.8674 19.0684-45.5498 19.3441-45.2146 19.6282-44.8886 19.8809-44.5983 20.114-44.2899 20.354-43.9893 20.6032-43.677 20.8459-43.3606 21.0886-43.0431 21.0636-43.0757 21.0387-43.1084 21.0137-43.141 21.4664-42.5477 21.9065-41.9456 22.3443-41.3408 22.9652-40.4845 23.5957-39.6347 24.2013-38.7672 24.5431-38.2776 24.876-37.7846 25.2047-37.2857 25.4735-36.8787 25.7189-36.4567 25.9704-36.0377 26.1436-35.7194 26.3202-35.403 26.4953-35.085 26.5744-34.9414 26.6386-34.7867 26.7096-34.6388 26.7366-34.5823 26.7636-34.5258 26.7906-34.4694 26.6177-34.532 26.4449-34.5948 26.2718-34.6572 25.7212-34.8562 25.1636-35.0332 24.6064-35.2137 24.4017-35.2797 24.1921-35.3312 23.9847-35.3876 23.691-35.4679 23.398-35.5573 23.1004-35.6219 23.1415-35.613 23.1822-35.6038 23.2233-35.595 22.7678-35.6971 22.312-35.7981 21.8562-35.8999 21.3651-36.0093 20.8651-36.0827 20.3705-36.1748 20.1051-36.2244 19.8344-36.2524 19.5676-36.2908 19.3179-36.3265 19.068-36.3687 18.8172-36.3952 18.2977-36.4498 17.7781-36.5166 17.2566-36.5535 16.7144-36.5922 16.173-36.636 15.6296-36.6568 15.0552-36.6783 14.4819-36.7001 13.907-36.7043 13.3383-36.7086 12.7726-36.7055 12.2039-36.6928 11.1026-36.6687 10.0029-36.6183 8.9027-36.565 7.879-36.5154 6.8513-36.4621 5.833-36.3457 5.257-36.2797 4.6829-36.2067 4.1084-36.1314 3.6288-36.0688 3.148-36.0385 2.6654-36.0166 2.6266-36.0166 2.5874-36.0166 2.549-36.0166 2.3973-36.0162 2.2457-36.0162 2.0943-36.0262 1.8079-36.0462 1.5744-35.7705 1.6028-35.4951 1.6305-35.2271 1.8697-35.047 2.1316-35.0651 2.1769-35.0681 2.2222-35.0701 2.2675-35.072 2.9227-35.0862 3.5777-35.1092 4.2306-35.1714 4.9241-35.2375 5.6172-35.2951 6.313-35.3435 6.351-35.3446 6.3894-35.3458 6.4278-35.3469 7.0007-35.365 7.5725-35.3815 8.1458-35.3849 8.7276-35.3888 9.309-35.3865 9.8911-35.3826 10.9237-35.3757 11.9559-35.3435 12.9881-35.3101 13.7165-35.269 14.4438-35.2248 15.1707-35.1611 15.8742-35.0996 16.5735-35.0163 17.2751-34.9326 17.8062-34.8515 18.3399-34.7794 18.8664-34.6757 19.2412-34.6019 19.6159-34.5286 19.9903-34.4549 20.195-34.4149 20.3982-34.362 20.6009-34.3124 20.5893-34.3153 20.5775-34.3179 20.5656-34.3206 20.579-34.3175 20.5925-34.3144 20.6058-34.3112 20.6048-34.3115 20.6038-34.3118 20.6028-34.312 20.6063-34.3113 20.6095-34.3104 20.6128-34.3097 20.6212-34.3074 20.6293-34.3055 20.6378-34.3036 20.6305-34.3055 20.6232-34.3071 20.6159-34.309 20.8758-34.2479 21.1389-34.1934 21.395-34.1189ZM40.7644-55.05C38.7223-52.7498 38.1628-49.4305 38.3237-46.4388 38.3798-44.313 38.5269-42.1864 39.2599-40.1715 39.6024-39.061 39.834-38.0322 40.3278-37.025 40.3992-37.0972 40.471-37.1686 40.5429-37.2401 40.9023-37.5979 41.264-37.9531 41.6254-38.3095 41.6584-38.3421 41.6914-38.3748 41.7241-38.4078 41.7244-38.4078 41.7244-38.4082 41.7244-38.4082 41.7425-38.4254 41.7601-38.4435 41.7774-38.4612 41.8062-38.4896 41.8346-38.5184 41.8631-38.5472 41.8918-38.576 41.9203-38.6048 41.9483-38.6336 42.0263-38.7123 42.1034-38.7914 42.1806-38.8705 42.2474-38.9231 42.3131-38.9777 42.3765-39.0349 42.4172-39.0706 42.4571-39.1078 42.4963-39.1459 42.5547-39.2031 42.6111-39.2626 42.666-39.3236 42.666-39.324 42.6664-39.3244 42.6668-39.3248 42.7301-39.3736 42.7931-39.4227 42.8557-39.4726 42.8561-39.4726 42.8561-39.473 42.8561-39.473 42.9187-39.5229 42.9809-39.5736 43.0423-39.6255 43.5281-40.0367 43.9993-40.4875 44.3955-40.9871 44.422-41.0206 44.4478-41.0543 44.4731-41.0881 44.4961-41.1185 44.5188-41.1496 44.5411-41.1807 44.5595-41.206 44.5776-41.2317 44.5952-41.2578 44.5991-41.2628 44.6025-41.2682 44.606-41.2736 44.619-41.2924 44.6321-41.3112 44.6444-41.3304 44.657-41.3488 44.6693-41.3677 44.6816-41.3865 44.6924-41.4026 44.7028-41.4187 44.7127-41.4349 44.7312-41.4633 44.7492-41.4917 44.7665-41.5205 44.7853-41.5505 44.8038-41.5808 44.8218-41.6111 44.8252-41.6161 44.8283-41.6215 44.831-41.6269 44.8468-41.6522 44.8617-41.6779 44.8767-41.7041 44.889-41.7256 44.9013-41.7467 44.9136-41.7682 45.0956-42.088 45.2576-42.4198 45.4178-42.7478 45.6704-43.2658 45.867-43.8168 45.9776-44.3832 46.0851-44.9316 46.1316-45.4911 46.1478-46.049 46.165-46.6515 46.0871-47.3062 45.7883-47.8423 45.7299-48.0439 45.6574-48.2424 45.5871-48.4387 45.5836-48.4483 45.5802-48.4575 45.5767-48.4671 45.5752-48.4721 45.5733-48.4771 45.5714-48.4817 45.5618-48.5082 45.5518-48.5347 45.5418-48.5608 45.5311-48.5896 45.5199-48.6184 45.5084-48.6472 45.4762-48.7282 45.4423-48.8085 45.407-48.8883 45.4024-48.8991 45.3978-48.9099 45.3928-48.9202 45.3859-48.9359 45.3786-48.9517 45.3713-48.9674 45.3605-48.9913 45.3494-49.0151 45.3383-49.0385 45.3314-49.0535 45.3241-49.0688 45.3168-49.0838 45.3106-49.0972 45.3041-49.1107 45.2972-49.1241 45.2845-49.1502 45.2718-49.1756 45.2588-49.2013 45.2584-49.2013 45.2584-49.2017 45.2584-49.2017 45.2296-49.2589 45.2004-49.3157 45.1712-49.373L45.1708-49.3733C45.1416-49.4302 45.1125-49.4874 45.0829-49.5442L45.0825-49.5446C45.0533-49.6014 45.0238-49.6583 44.9938-49.7155L44.9934-49.7159C44.9347-49.8288 44.8755-49.942 44.816-50.0549 44.816-50.0557 44.8156-50.0561 44.8153-50.0569L44.8149-50.0572C44.8095-50.068 44.8038-50.0787 44.798-50.0895 44.7738-50.1356 44.7496-50.1817 44.7254-50.2273 44.7254-50.2277 44.725-50.2277 44.725-50.2277 44.7104-50.2561 44.6954-50.2846 44.6805-50.313 44.6659-50.3414 44.6505-50.3698 44.6355-50.3982L44.6352-50.3986C44.6294-50.4098 44.6236-50.4213 44.6175-50.4328 44.609-50.4485 44.6006-50.4647 44.5922-50.4808 44.5764-50.51 44.5611-50.5395 44.5457-50.5687V-50.5691C44.53-50.5987 44.5142-50.6283 44.4988-50.6582V-50.6586C44.4827-50.6882 44.4673-50.7177 44.4516-50.7473V-50.7477C44.4355-50.7772 44.4197-50.8068 44.404-50.836V-50.8364C44.3894-50.8636 44.3748-50.8905 44.3602-50.9174 44.3587-50.9201 44.3575-50.9224 44.356-50.9247H44.3564V-50.9251H44.356C44.3552-50.927 44.3545-50.9285 44.3533-50.9301 44.3437-50.9481 44.3341-50.9658 44.3241-50.9834 44.3187-50.9934 44.3134-51.0034 44.308-51.0134 44.3018-51.0245 44.2961-51.0353 44.29-51.0461 44.2892-51.0472 44.2884-51.0487 44.2877-51.0499 44.2781-51.0672 44.2684-51.0841 44.2588-51.1013V-51.1017C44.2538-51.1105 44.2492-51.1198 44.2442-51.1286 44.2412-51.134 44.2385-51.1394 44.2354-51.1443 44.2274-51.1586 44.2193-51.1728 44.2112-51.1866 44.2104-51.1874 44.2101-51.1881 44.2097-51.1889V-51.1893C44.1989-51.2085 44.1878-51.2277 44.1767-51.2465 44.1709-51.2565 44.1651-51.2665 44.1594-51.2764V-51.2768C44.1528-51.2883 44.146-51.3002 44.139-51.3118 44.1329-51.3229 44.1264-51.334 44.1195-51.3452 44.1156-51.3513 44.1122-51.3571 44.1087-51.3632V-51.3636C44.1083-51.3644 44.1079-51.3651 44.1075-51.3659 44.1052-51.3694 44.1033-51.3732 44.101-51.3767 44.086-51.4009 44.0715-51.425 44.0569-51.4496V-51.45C44.0396-51.4784 44.0219-51.5068 44.0042-51.5353H44.0046V-51.5357H44.0042C43.9973-51.5472 43.9904-51.5587 43.9831-51.5698 43.9789-51.5767 43.9743-51.584 43.9697-51.5909 43.9651-51.5986 43.9605-51.6059 43.9555-51.6132 43.9539-51.6155 43.9524-51.6182 43.9509-51.6205V-51.6209C43.9505-51.6217 43.9497-51.6228 43.9489-51.6236 43.9313-51.6508 43.914-51.6781 43.896-51.705H43.8963V-51.7054H43.896C43.8902-51.7142 43.8848-51.723 43.8787-51.7319 43.8687-51.7465 43.8591-51.761 43.8499-51.7753 43.8483-51.778 43.8468-51.7802 43.8445-51.7829 43.843-51.7849 43.8414-51.7872 43.8403-51.7891V-51.7895C43.8357-51.7964 43.8307-51.8037 43.8257-51.8106 43.8234-51.8144 43.8207-51.8183 43.818-51.8221 43.8061-51.839 43.7946-51.8555 43.7831-51.872V-51.8724C43.7638-51.9001 43.7443-51.9273 43.7247-51.9546V-51.955C43.7086-51.9776 43.692-51.9999 43.6752-52.0222 43.6744-52.0237 43.6732-52.0252 43.6721-52.0268 43.6717-52.0276 43.6709-52.0283 43.6705-52.0291 43.6702-52.0295 43.6698-52.0298 43.6694-52.0302 43.6679-52.0322 43.6667-52.0341 43.6652-52.0356 43.6606-52.0421 43.656-52.0487 43.651-52.0548 43.6502-52.056 43.6494-52.0571 43.6483-52.0583 43.6456-52.0617 43.6429-52.0652 43.6402-52.069 43.6379-52.0725 43.6352-52.0759 43.6321-52.0794 43.6202-52.0951 43.608-52.1109 43.5957-52.1266 43.5884-52.1362 43.5811-52.1458 43.5734-52.1554 43.5711-52.1585 43.5684-52.1616 43.5661-52.165 43.5649-52.1662 43.5638-52.1677 43.5626-52.1693 43.5611-52.1715 43.5592-52.1735 43.5577-52.1758 43.5577-52.1765 43.5569-52.1769 43.5561-52.1777 43.555-52.1788 43.5534-52.1804 43.5523-52.1819 43.5488-52.1869 43.545-52.1919 43.5412-52.1965 43.5392-52.1988 43.5373-52.2011 43.5354-52.2034 43.5266-52.2149 43.5173-52.2265 43.5077-52.238 43.5073-52.2384 43.507-52.2388 43.5066-52.2391 43.4878-52.2626 43.4689-52.2856 43.4497-52.3086 43.4309-52.3317 43.4117-52.3543 43.3921-52.3774 43.3837-52.3877 43.3749-52.3981 43.366-52.4085 43.3645-52.4108 43.3626-52.4127 43.3607-52.4146 43.3549-52.4219 43.3487-52.4292 43.3422-52.4361 43.3311-52.4488 43.3203-52.4615 43.31-52.4738 43.3088-52.4753 43.3073-52.4772 43.3054-52.4788V-52.4791C43.2954-52.4899 43.2866-52.5002 43.2773-52.511 43.2766-52.5118 43.2758-52.5125 43.275-52.5133 43.275-52.5137 43.2747-52.5137 43.2747-52.5141 43.2627-52.5275 43.2508-52.5413 43.2389-52.5548 43.2347-52.5594 43.2305-52.564 43.2267-52.5686 43.2209-52.5755 43.2151-52.5821 43.209-52.5886 43.1856-52.6147 43.1621-52.6408 43.1383-52.6665 43.1141-52.693 43.0899-52.7195 43.0658-52.746 43.0604-52.7522 43.0546-52.7579 43.0492-52.7641 43.0492-52.7645 43.0488-52.7645 43.0488-52.7648 42.9175-52.9073 42.7843-53.0475 42.6518-53.1876 42.6449-53.1949 42.638-53.2022 42.6311-53.2091 42.454-53.5248 42.2855-53.8443 42.1353-54.1699V-54.1703C41.8461-54.5777 41.5716-55.0013 41.3251-55.4398 41.125-55.3311 40.9357-55.2044 40.7644-55.05ZM36.8461-58.4573C36.8219-58.1409 37.068-57.8567 37.3841-57.8333 37.3975-57.8321 37.4109-57.8317 37.4244-57.8317 37.7189-57.8317 37.9958-58.0679 38.0085-58.3712 38.0142-58.5145 38.02-58.6573 38.0253-58.8006 38.0253-58.8002 38.0253-58.7998 38.0253-58.7994 38.0426-59.2479 38.058-59.6968 38.0756-60.1453 38.0933-60.5988 38.1198-61.052 38.144-61.5051 38.1847-62.2681 38.2373-63.0315 38.2984-63.793 38.3928-64.9676 38.4892-66.1419 38.5868-67.3166 38.6263-67.7893 38.6647-68.2624 38.7004-68.7354 38.7277-69.0953 38.7553-69.4551 38.7822-69.8149 38.793-69.957 38.8045-70.099 38.8148-70.2411 38.8387-70.5802 38.8732-70.9162 38.9224-71.2526 38.9976-71.2983 39.0587-71.3678 39.0913-71.4561 39.1643-71.6539 39.0641-71.9169 38.851-71.9799 38.7638-72.006 38.6789-72.0279 38.5868-72.011 38.4904-71.9933 38.3921-71.9365 38.3256-71.8647 38.149-71.675 38.1229-71.4108 38.0868-71.1654 38.0046-70.6478 37.9739-70.1225 37.9267-69.5998 37.8871-69.1647 37.8479-68.7297 37.8088-68.2946 37.7462-67.6049 37.6702-66.9164 37.6006-66.2275 37.5047-65.2756 37.4014-64.3248 37.3073-63.3729 37.1928-62.2143 37.0822-61.0558 36.9732-59.8973 36.9755-59.9218 36.9778-59.9464 36.9801-59.971 36.9313-59.4668 36.8845-58.9626 36.8461-58.4573Z"/>
<path transform="matrix(1,0,0,1,38.4885,24.8342)" d="M0 0C-.3015-.1924-.4097-.5553-.5664-.8586-.8029-1.3075-1.0714-1.7365-1.3214-2.1784-2.5797-4.3768-3.7659-6.6363-4.4652-9.0839-5.4037-11.7481-5.4801-14.6147-5.6594-17.4075-5.6894-18.7492-5.6709-20.0932-5.7178-21.435-5.8042-21.743-5.8087-22.0818-5.7282-22.3872-5.6877-22.3454-5.6472-22.3036-5.6066-22.2618-5.6004-22.2552-5.594-22.2487-5.5876-22.2421-5.5939-22.2486-5.6003-22.2552-5.6066-22.2618-5.6131-22.2685-5.6196-22.2752-5.626-22.2821-5.1203-21.7602-4.6149-21.2383-4.1092-20.7169-3.8383-20.4372-3.557-20.167-3.2745-19.8983-3.2481-17.4391-3.3695-14.9568-3.009-12.5196-2.3232-8.4899-1.1148-4.5481 .4105-.7572 .8487-.5312 .6085 .0623 .2197 .0623 .1502 .0623 .076 .0434 0 0Z"/>
<path transform="matrix(1,0,0,1,68.3397,21.2975)" d="M0 0C-.1079-.1079-.1256-.2749-.0519-.404H-.0523C.7906-2.2802 .6639-4.4771 .9892-6.4862 1.5569-9.9272 1.2274-13.4325 1.5995-16.8851 1.7295-17.0014 1.8595-17.1178 1.9895-17.234 2.4083-17.6083 2.8253-17.985 3.2426-18.3614 3.3811-17.5965 3.2295-16.8151 3.1714-16.0486 3.0708-12.9274 3.2705-9.7575 2.6039-6.6843 2.4041-5.7982 1.4536 .0723 .2336 .0725 .1567 .0726 .0788 .0493 0 0Z"/>
<path transform="matrix(1,0,0,1,7.6213,91.9942)" d="M0 0C-2.2822-.5057 5.9463-13.1306 6.8994-14.5564 8.7864-17.3662 11.1402-19.8374 12.9324-22.7086 13.5867-23.504 14.3716-22.4872 13.5208-22.2561 12.0948-19.9635 10.4119-17.8371 8.8566-15.6255 7.0167-12.9048 5.3997-10.0827 3.7421-7.2553 2.9286-5.7236 2.1293-4.1791 1.4796-2.5694 1.1963-1.8693 .9781-1.1469 .7519-.427 .6554-.1055 .3177 .0907 0 0Z"/>
<path transform="matrix(1,0,0,1,9.625,95.1473)" d="M0 0C-.7651-.6009-1.4759-1.3034-1.778-2.254-2.0537-3.0717-2.3489-3.9689-2.2215-4.838-2.0965-5.499-1.2455-5.2267-1.6557-4.7469-1.6024-3.5285-1.1676-2.2167-.2678-1.3771 .0048-1.1559 .2939-.9553 .5771-.748 1.0701-.3872 .474 .3851 0 0Z"/>
<path transform="matrix(1,0,0,1,8.2368,94.0867)" d="M0 0C-.5685-.9392-.9331-2.0253-.8778-3.1327-.8685-3.7431-.5975-4.914 .2354-4.5151 .5057-4.3565 .6255-3.9725 .4488-3.6999-.0323-2.6924 .4948-1.4891 .9865-.5768 1.3574 .07 .3818 .6414 0 0Z"/>
<path transform="matrix(1,0,0,1,10.7455,95.1863)" d="M0 0C-.4133-.131-.8201-.2821-1.2027-.488-1.6942-.7585-3.4102-1.7925-2.688-2.4269-2.4902-2.5797-2.1742-2.5513-2.0248-2.3412-1.4962-1.5843-.6062-1.1801 .2565-.9304 .8633-.7455 .6111 .1595 0 0Z"/>
<path transform="matrix(1,0,0,1,11.2626,95.0541)" d="M0 0C-1.0175-.115-1.9305-.6302-2.7475-1.2204-4.4153-2.293-2.709-3.2754-2.5082-2.171-1.9528-1.6398-1.2713-1.2279-.5565-.9489-.224-.7842 .4526-.8264 .4193-.3184 .3927-.1177 .1975 .0293 0 0Z"/>
<path transform="matrix(1,0,0,1,7.7129,92.412)" d="M0 0C.0362-1.2589 .3242-2.4852 .5932-3.7106 .6309-3.8842 .8302-3.9832 .9941-3.9383 1.1581-3.8934 1.2787-3.7056 1.2219-3.5374 1.1015-3.1805 .9771-2.8256 .8766-2.4626 .6581-1.6441 .5744-.8059 .5284 .0361 .4944 .3542-.0073 .3216 0 0Z"/>
<path transform="matrix(1,0,0,1,9.0207,94.4958)" d="M0 0C-.2415-.4016-1.0706-1.4799-1.0083-1.8885-.9371-2.1945-.475-2.2614-.329-1.9776-.0566-1.4307 .2516-.9043 .5595-.3772 .7745-.0282 .2409 .3326 0 0Z"/>
<path transform="matrix(1,0,0,1,9.1467,94.1924)" d="M0 0C-.3457-.3711-.6695-.7609-.9688-1.1704-1.0549-1.2864-1.0368-1.4531-.9208-1.5425-.8079-1.6297-.6348-1.6109-.5487-1.4946-.3261-1.1983-.1034-.902 .146-.6276 .2923-.4558 .596-.2335 .3752 0 .2759 .0992 .0981 .1058 0 0Z"/>
<path transform="matrix(1,0,0,1,9.1191,94.1875)" d="M0 0C-.3203-.4328-.6443-.8625-.9673-1.2933-1.0602-1.4173-1.0399-1.597-.9158-1.6931-.7941-1.7867-.609-1.7656-.5161-1.6416-.1931-1.2107 .1283-.7787 .4535-.3502 .6785-.0523 .2307 .2942 0 0Z"/>
<path transform="matrix(1,0,0,1,9.4767,94.2998)" d="M0 0C-.4253-.4117-1.4545-1.1122-1.539-1.6881-1.5342-2.0627-.9717-2.0661-.9583-1.6954-.5924-1.2153-.1109-.8377 .3468-.4493 .6359-.2185 .2932 .2257 0 0Z"/>
<path transform="matrix(1,0,0,1,9.6385,94.3252)" d="M0 0C-.4754-.3911-.9214-.8149-1.3463-1.2599-1.4523-1.3693-1.455-1.5464-1.3463-1.655-1.2403-1.761-1.0564-1.7649-.9512-1.655-.5405-1.229-.1304-.7998 .3244-.4201 .5949-.2039 .2749 .2103 0 0Z"/>
<path transform="matrix(1,0,0,1,58.583,67.8112)" d="M0 0C-.791-1.47-1.4054-3.0223-1.9816-4.5865-2.1789-5.3743-3.1478-7.0067-2.8685-7.688-2.5464-8.2121-1.6535-7.8055-2.0178-7.2305-1.3844-5.5407-.7312-3.8521 .0088-2.2053 .2849-1.6345 .5769-1.071 .8739-.5111 1.2056 .0523 .3225 .5717 0 0Z"/>
<path transform="matrix(1,0,0,1,58.7616,68.4788)" d="M0 0C-.9627-2.0345-1.8409-4.1088-2.7173-6.1817-2.9147-6.7749-3.6975-8.1023-2.698-8.3009-2.2617-8.3004-2.1963-7.8726-2.1795-7.5282-2.0602-7.0585-1.8497-6.6187-1.6654-6.1721-.8484-4.2246 .0377-2.3076 .9035-.3817 1.1528 .196 .2533 .5896 0 0Z"/>
<path transform="matrix(1,0,0,1,58.8349,67.6599)" d="M0 0C-1.0579-2.035-2.0125-4.0917-3.0384-6.1392-3.4079-6.9498-4.03-7.6736-4.2858-8.5194-4.2879-8.858-3.759-8.866-3.7549-8.5247-2.5989-6.5396-1.6262-4.4542-.5775-2.4104-.2083-1.7103 .1707-1.0161 .5533-.3233 .764 .0301 .2022 .3638 0 0Z"/>
<path transform="matrix(1,0,0,1,58.6366,67.6936)" d="M0 0C-1.1597-2.0767-2.363-4.1459-3.2831-6.3426-3.8683-7.6404-2.0797-8.046-2.2388-6.777-1.3801-4.5861-.1544-2.6113 .9731-.5688 1.3429 .0564 .3644 .6351 0 0Z"/>
<path transform="matrix(1,0,0,1,56.1923,69.3975)" d="M0 0C-.7895-.5196 .8813-1.4955 1.2488-1.8451 2.2478-2.6128 3.2764-3.3413 4.2743-4.1103 4.9659-4.6278 5.7136-3.5231 4.9702-3.0781 3.5567-2.3108 2.1632-1.4949 .8663-.5416 1.0586-.0543 .346 .1294 0 0Z"/>
<path transform="matrix(1,0,0,1,54.597,70.4028)" d="M0 0C-.2918-.2922-.3053-.8029 0-1.0929 .7024-1.7592 1.4178-2.4114 2.1615-3.0313 3.3125-3.9648 4.4273-4.9678 5.7285-5.6913 6.119-5.9048 6.616-5.79 6.8455-5.3983 7.3481-4.4565 6.1529-4.1145 5.5597-3.696 4.8171-3.1813 4.1226-2.6008 3.4203-2.0341 2.6183-1.3862 1.8581-.6905 1.0929 0 .7993 .2931 .2914 .3024 0 0Z"/>
<path transform="matrix(1,0,0,1,54.598,70.2254)" d="M0 0C-.2838-.2193-.349-.6532-.1206-.937 .6294-1.8697 1.3793-2.8017 2.1151-3.7455 2.7334-4.5424 3.3458-5.3432 3.9384-6.1593 5.144-8.2979 6.371-6.4879 5.2725-5.9932 4.5055-5.0034 3.799-3.9664 3.0401-2.9695 2.3355-2.0225 1.6347-1.0729 .937-.1206 .7217 .1735 .2821 .2182 0 0Z"/>
<path transform="matrix(1,0,0,1,59.4112,30.6333)" d="M0 0C-.4753-.1197-.5579-.7942-.1356-1.036 .864-1.6643 1.8647-2.2902 2.8584-2.928 4.2449-3.7909 5.5937-4.7415 7.0901-5.407 8.7295-6.1567 8.8882-4.2468 7.7555-4.6634 5.892-3.965 4.331-2.6079 2.6548-1.5544 2.1472-1.2109 1.7002-.9088 1.2223-.5863 .8281-.3864 .4802 .1062 0 0Z"/>
<path transform="matrix(1,0,0,1,59.5189,30.0728)" d="M0 0C-.5751-.9232 .8676-1.3383 1.3863-1.8474 2.8925-2.9463 4.338-4.1282 5.8775-5.1804 8.1078-6.9373 8.6806-4.7439 7.3994-4.7496 5.9543-4.0287 4.7685-2.8536 3.481-1.8881 2.6427-1.2057 1.8045-.5245 .9366 .1206 .6465 .3367 .2263 .293 0 0Z"/>
<path transform="matrix(1,0,0,1,60.5775,44.0055)" d="M0 0C-.2742-.212-.2945-.6202-.0553-.8659 .7135-1.6558 1.4853-2.4423 2.2625-3.2237 3.0722-4.0379 3.895-4.8398 4.7103-5.6479 4.8808-5.9623 5.4055-5.7594 5.2966-5.4082 5.0805-4.9599 4.6512-4.6307 4.3496-4.2413 3.645-3.4444 2.9243-2.6619 2.2445-1.8436 1.7637-1.2661 1.2868-.6858 .8106-.1045 .61 .1407 .2518 .1952 0 0Z"/>
<path transform="matrix(1,0,0,1,60.7097,43.301)" d="M0 0C-.383-.284-.4143-.8774-.0772-1.2096 .306-1.6197 .6904-2.0294 1.084-2.4296 2.2805-3.6448 3.528-4.8134 4.8108-5.9366 5.5791-6.8383 6.579-5.3068 5.4422-4.9687 4.4566-4.0552 3.5339-3.0782 2.6272-2.0872 2.2595-1.6382 1.8749-1.2027 1.544-.7254 1.1588-.1497 .7646 .4935 0 0Z"/>
<path transform="matrix(1,0,0,1,23.4343,68.219)" d="M0 0C-.3556-.275-.4359-.8172-.1509-1.1727 1.8582-3.6783 3.9077-6.1517 5.9482-8.6308 6.8822-9.9382 8.4773-8.0562 7.0285-7.3489 5.572-5.631 4.1691-3.8678 2.7563-2.114 2.2295-1.4588 1.7027-.8037 1.1727-.1509 .8841 .2046 .3633 .2816 0 0Z"/>
<path transform="matrix(1,0,0,1,36.7476,53.0373)" d="M0 0C-.3924-.1659-.6098-.654-.4266-1.0506 .1429-2.2852 .7077-3.5217 1.2699-4.7593 1.8094-5.9614 2.3642-7.1566 2.8481-8.3828 3.1489-8.9914 3.256-9.6895 3.6111-10.2666 4.4172-11.2327 5.7439-9.8923 4.7604-9.1126 3.9177-6.9611 2.9663-4.8529 2.0479-2.7329 1.7123-1.9653 1.382-1.1958 1.0506-.4266 .8778-.0228 .3959 .1699 0 0Z"/>
<path transform="matrix(1,0,0,1,65.4214,81.118)" d="M0 0C3.1319-3.9598 7.1762-7.0591 11.3476-9.8484 14.425-11.9486 18.3272-13.1562 20.5229-16.3239 22.2752-18.8982 22.9084-22.039 23.1641-25.0956 23.4786-28.456 22.5896-31.755 21.238-34.807 20.0216-37.8056 18.2294-40.5157 16.4379-43.1971 17.4393-42.5673 18.4385-41.9341 19.4392-41.3033 19.5738-41.1114 19.7114-40.9224 19.8537-40.7375 22.1089-37.4067 24.0093-33.7479 25.0837-29.8591 26.1916-24.2393 25.7584-17.7236 22.2368-13.005 19.2273-9.4503 14.6804-7.6566 11.204-4.6479 8.8332-2.7944 6.51-.854 4.5059 1.3997 4.2098 1.7422 3.9168 2.0878 3.6254 2.435 2.9898 2.5183 2.354 2.6016 1.718 2.6853 1.1359 2.7621 .5556 2.8677-.0246 2.9588-.5303 3.0382-1.0314 3.1362-1.5341 3.2337-1.9231 3.3093-2.3113 3.3884-2.6991 3.4702-1.8064 2.3083-.9204 1.1397 0 0Z" fill="#466d8f"/>
<path transform="matrix(1,0,0,1,6.5234,65.1323)" d="M0 0C.0747-.5017 .1479-1.0037 .2201-1.5057 .6521-1.9416 1.0702-2.3911 1.4738-2.8535 7.0752-9.7133 12.7949-16.8469 15.9725-25.2005 18.6932-32.5119 17.4859-40.3508 14.9684-47.5313 14.0759-50.0261 13.162-52.5195 12.4846-55.0835 12.4098-55.6118 12.2097-56.1563 12.0319-56.7032 12.0818-56.6805 12.1318-56.6575 12.1821-56.6352 12.1533-56.6479 12.1245-56.6609 12.0956-56.6736 12.6164-56.4405 13.1371-56.2074 13.6582-55.9747 13.8736-55.8511 14.0902-55.7289 14.3094-55.6126 14.8301-55.3357 15.3443-55.0401 15.8777-54.7889 15.9176-54.7674 15.9587-54.7497 16.0002-54.7355 16.2521-53.7483 16.5193-52.7648 16.8097-51.7872 21.7364-37.4444 21.4979-26.5679 12.1567-14.1159 9.9537-10.9333 7.503-7.9277 5.0032-4.9755 3.4204-3.1246 1.7984-1.2851-.0453 .305-.0302 .2033-.0151 .1017 0 0Z" fill="#466d8f"/>
<path transform="matrix(1,0,0,1,6.5237,65.1323)" d="M0 0C.1471-.9883 .2886-1.9776 .4281-2.9671 1.7098-4.7732 2.9905-6.5844 4.1906-8.4442 6.7796-12.8287 9.605-17.1276 11.3883-21.9219 13.0345-26.1459 14.8271-30.5477 14.4304-35.1703 14.0713-39.988 12.8855-44.7423 10.9221-49.1568 9.8151-52.3037 7.4293-55.4536 7.796-58.8735 8.2702-58.6209 8.7456-58.3705 9.2237-58.1251 9.9007-57.7776 10.5781-57.4301 11.2551-57.0822 11.5615-56.9251 11.8672-56.7757 12.1817-56.6356 12.1529-56.6483 12.1241-56.6613 12.0953-56.674 12.5507-56.4701 13.0057-56.2666 13.4612-56.0627 13.4823-55.9981 13.5049-55.9344 13.5287-55.8714 15.6481-50.1636 17.8257-44.3955 18.2239-38.2615 18.8241-33.2242 17.8564-28.1941 15.8397-23.5665 14.114-19.225 11.9678-15.0732 9.2848-11.2439 7.041-7.6685 4.4644-4.2152 1.5241-1.215 1.0237-.7119 .5013-.2317-.0347 .2334-.0231 .1555-.0116 .0778 0 0Z" fill="#466d8f"/>
<path transform="matrix(1,0,0,1,65.4366,83.3056)" d="M0 0C2.3109-2.8969 5.3027-5.136 8.2852-7.2941 10.653-8.7702 13.2089-9.9238 15.3827-11.7082 19.1559-14.4381 22.8608-17.8234 24.4363-22.3231 25.4443-25.3414 25.2988-28.6173 24.7869-31.72 24.0105-34.6166 22.59-37.3 21.1001-39.8866 20.233-41.375 19.4305-42.9417 18.1971-44.1659 18.1007-44.2574 18.0061-44.3506 17.9128-44.445 19.1171-43.6843 20.321-42.9227 21.5306-42.1702 21.5267-42.1727 21.5227-42.1752 21.5187-42.1778 21.6838-42.0745 21.8488-41.9713 22.0139-41.8681 22.2252-41.5659 22.4302-41.2589 22.6296-40.9484 24.429-38.3099 26.0629-35.5478 27.198-32.5575 28.8085-27.4357 28.6165-21.5801 25.5514-17.0297 23.0451-13.4504 19.5322-10.6714 15.9076-8.2894 13.8021-6.7104 11.2336-5.8948 9.1577-4.2762 7.2473-2.8651 5.3461-1.4462 3.6672 .24 3.0125 .3256 2.3578 .4113 1.703 .4977 1.1209 .5745 .5407 .6801-.0396 .7711-.2427 .8029-.4451 .8379-.647 .8744-.4343 .5814-.2177 .2903 0 0Z" fill="#466d8f"/>
<path transform="matrix(1,0,0,1,68.1726,83.0262)" d="M0 0C3.1046-2.9484 6.5756-5.4555 10.0504-7.9427 12.0404-9.3931 13.9542-10.9364 15.9061-12.4347 16.5213-12.8867 17.0788-13.4093 17.628-13.9373 17.9283-14.2069 18.2792-14.6973 18.7285-14.4465 19.0757-14.253 19.0595-13.7046 18.6955-13.5395 17.7336-12.5092 16.6895-11.5684 15.6507-10.6184 13.7353-8.6903 11.5373-7.066 9.4802-5.2946 7.3957-3.4557 5.2207-1.7334 3.2349 .2139 2.8738 .2629 2.5124 .3111 2.1512 .359 1.1395 .4926 .1279 .6245-.8837 .7576-.5891 .5051-.2948 .2522 0 0Z" fill="#466d8f"/>
<path transform="matrix(1,0,0,1,66.693,83.7028)" d="M0 0C.3533-.3817 .5614-.9888 1.1301-1.0852 1.7395-1.1714 2.0472-.519 1.8183-.0795 1.3611-.0195 .9038 .0404 .4466 .1006 .2478 .1268 .0493 .1564-.149 .1876-.0993 .1248-.0497 .0623 0 0Z" fill="#466d8f"/>
<path transform="matrix(1,0,0,1,63.3733,84.3241)" d="M0 0C.2792-.1174 .5527-.1134 .7892-.0257 .6975-.0079 .6059 .0099 .5142 .0277 .2173 .0854-.079 .1452-.3749 .2065-.2549 .1261-.1288 .0567 0 0Z" fill="#466d8f"/>
<path transform="matrix(1,0,0,1,15.914,10.4211)" d="M0 0C-.3041-.4854-.4815-1.0318-.7073-1.5552-.9508-2.0913-1.2254-2.6216-1.3563-3.2003-1.4274-3.4801-1.4582-3.7793-1.452-4.0862-1.0251-3.8592-.597-3.6344-.1667-3.4134 .2072-3.2215 .5812-3.0296 .9551-2.8376 1.0404-2.6153 1.1352-2.3769 1.2296-2.1128 1.3793-1.6443 1.5341-1.175 1.6593-.6996 1.8288-.0342 1.3025 .4464 .7638 .4464 .479 .4465 .1908 .3122 0 0Z" fill="#466d8f"/>
<path transform="matrix(1,0,0,1,70.5821,46.4697)" d="M0 0C-.765-.9407-1.5679-1.8931-2.0571-3.0125-2.2289-3.449-1.5853-3.7218-1.3974-3.2913-1.2495-2.8784-1.0108-2.5067-.7707-2.1427-.3785-1.5347 .0801-.9748 .5368-.4147 .8038-.0638 .2783 .347 0 0Z"/>
<path transform="matrix(1,0,0,1,74.9207,50.8366)" d="M0 0C-.4573-.0856-.7483-.7185-1.0663-1.0368-1.5615-1.66-2.1091-2.2364-2.6661-2.804-3.0155-3.1596-3.3604-3.5194-3.7179-3.8669-4.2592-4.4135-4.882-4.8922-5.318-5.5331-5.6584-6.0488-7.1432-8.2278-6.8004-8.742-6.5886-9.0909-6.0461-8.8122-6.2202-8.4378-5.9064-7.5172-5.3078-6.756-4.6988-6.0132-4.4263-5.692-4.0697-5.4613-3.7382-5.2064-2.1497-3.9727-.5899-2.6421 .5687-.9823 .8985-.5673 .5294 .0874 0 0Z"/>
<path transform="matrix(1,0,0,1,69.9017,45.5664)" d="M0 0C-.3288-.6524-1.7655-2.8915-1.6081-3.4587-1.4867-3.8636-.8508-3.6844-.9962-3.2731-.6217-2.23 .0131-1.3286 .687-.4631 1.0262 .0042 .3079 .4914 0 0Z"/>
<path transform="matrix(1,0,0,1,73.0074,48.2277)" d="M0 0C-1.4337-.8796-2.7442-1.8845-3.7785-3.2099-4.3415-3.9483-4.6117-4.8463-5.0054-5.6752-5.0976-5.8775-5.2105-6.1702-4.991-6.3325-4.7834-6.5014-4.4565-6.3178-4.4921-6.0508-4.3296-5.6374-4.1138-5.2477-3.8688-4.8776-3.0738-3.6776-1.8944-2.8395-.7274-2.0341-.2381-1.7212 .272-1.4416 .7239-1.0737 1.3451-.568 .701 .3862 0 0Z"/>
<path transform="matrix(1,0,0,1,73.353,47.9421)" d="M0 0C-.5165-.1763-.9753-.4726-1.4226-.7789-2.1038-1.2234-2.7858-1.6693-3.4215-2.178-4.5023-3.0889-5.2052-4.3737-5.8349-5.6145-5.9486-5.838-6.1103-6.0757-6.1072-6.3345-6.1041-6.6102-5.8587-6.8295-5.583-6.7922-5.3098-6.7565-5.1879-6.518-5.1782-6.2798-4.9701-5.8666-4.6862-5.504-4.3857-5.1549-3.5002-3.973-2.3116-3.0776-.995-2.4246-.7189-2.2794-.4577-2.1105-.1893-1.953 .2379-1.6483 .9057-1.4879 1.0732-.9416 1.2616-.3248 .5877 .2628 0 0Z"/>
<path transform="matrix(1,0,0,1,71.575,47.3013)" d="M0 0C-.1807-.0186-.2826-.1691-.3677-.3121-.5857-.6218-.8433-.9022-1.1067-1.1735-1.3891-1.462-.9581-1.8942-.669-1.6116-.3656-1.3162-.1223-.9509 .2568-.7442 .6279-.5345 .4218 .0674 0 0Z"/>
<path transform="matrix(1,0,0,1,72.6124,49.1779)" d="M0 0C-.2097-.0284-.3763-.152-.4892-.3268-1.1685-1.3725-1.7963-2.4601-2.627-3.3964-3.2826-3.807-2.5809-4.7353-2.0053-4.2128-1.1422-3.1687-.1985-2.1653 .6236-1.0771 .9945-.6273 .5737 .0985 0 0Z"/>
</g>
</svg>
